<svg width="18" height="18" viewBox="0 0 18 18" fill="none" xmlns="http://www.w3.org/2000/svg">
<path fill-rule="evenodd" clip-rule="evenodd" d="M5.22686 3.14602C5.1643 3.37754 5.12377 3.94639 5.73233 4.96065C5.82603 5.11681 5.83833 5.30867 5.76533 5.47552C5.13412 6.91829 5.06361 7.8635 5.21095 8.47589C5.35239 9.06374 5.71527 9.42876 6.17416 9.67732C6.64931 9.9347 7.20346 10.0522 7.66054 10.1265C7.7236 10.1367 7.7902 10.1469 7.85631 10.157C8.00136 10.1791 8.14409 10.2009 8.24208 10.2224C8.28309 10.2315 8.33153 10.2435 8.38026 10.26C8.42179 10.2741 8.50137 10.3036 8.58089 10.3617C8.65854 10.4183 8.82194 10.5685 8.82922 10.8271C8.83595 11.0665 8.70106 11.2195 8.64776 11.2728C8.58611 11.3344 8.53035 11.3879 8.47949 11.4367C8.23944 11.6669 8.1086 11.7924 7.98406 12.1774C7.81234 12.7083 7.6875 13.688 7.6875 15.75C7.6875 16.0607 7.43566 16.3125 7.125 16.3125C6.81434 16.3125 6.5625 16.0607 6.5625 15.75C6.5625 14.9456 6.58067 14.2816 6.61657 13.7283C6.55395 13.7297 6.48727 13.7286 6.41782 13.7235C6.03319 13.695 5.62466 13.5452 5.22725 13.1478C4.98741 12.9079 4.84093 12.67 4.73132 12.4766C4.70517 12.4304 4.68251 12.3898 4.66229 12.3535C4.58963 12.2232 4.54838 12.1492 4.48975 12.0789C4.4132 11.987 4.24613 11.8125 3.375 11.8125C3.06434 11.8125 2.8125 11.5607 2.8125 11.25C2.8125 10.9394 3.06434 10.6875 3.375 10.6875C4.37887 10.6875 4.9618 10.8881 5.354 11.3587C5.48718 11.5185 5.59111 11.7069 5.66786 11.846C5.68299 11.8734 5.69706 11.8989 5.71009 11.9219C5.79969 12.0801 5.88759 12.2171 6.02275 12.3523C6.22534 12.5549 6.37931 12.5926 6.50093 12.6016C6.57083 12.6068 6.64427 12.6029 6.73727 12.5935C6.78607 12.2935 6.84493 12.0437 6.91366 11.8312C6.99891 11.5677 7.10125 11.3601 7.21034 11.1898C6.75433 11.1037 6.1753 10.9574 5.63834 10.6665C4.97222 10.3057 4.35073 9.70981 4.11716 8.73906C3.90245 7.84667 4.036 6.71869 4.62343 5.2869C3.83158 3.82555 3.98147 2.72309 4.47725 2.22731C4.55577 2.14878 4.65578 2.09526 4.76468 2.07348C5.15225 1.99597 5.75166 1.97474 6.3545 2.15072C6.83542 2.29111 7.3351 2.56357 7.71466 3.04329C8.32429 2.81638 8.75943 2.81254 9 2.81254C9.24056 2.81254 9.6757 2.81638 10.2853 3.04329C10.6649 2.56357 11.1646 2.29111 11.6455 2.15072C12.2483 1.97474 12.8478 1.99597 13.2353 2.07348C13.3442 2.09526 13.4442 2.14878 13.5228 2.22731C14.0185 2.72309 14.1684 3.82556 13.3766 5.2869C13.964 6.7187 14.0975 7.84667 13.8828 8.73906C13.6493 9.70981 13.0278 10.3057 12.3617 10.6665C11.8247 10.9574 11.2457 11.1037 10.7897 11.1898C10.8988 11.3601 11.0011 11.5677 11.0863 11.8312C11.318 12.5475 11.4375 13.687 11.4375 15.75C11.4375 16.0607 11.1857 16.3125 10.875 16.3125C10.5643 16.3125 10.3125 16.0607 10.3125 15.75C10.3125 13.688 10.1877 12.7083 10.0159 12.1774C9.8914 11.7924 9.76057 11.6669 9.52051 11.4367C9.46965 11.3879 9.41389 11.3344 9.35224 11.2728C9.29894 11.2195 9.16405 11.0665 9.17078 10.8271C9.17806 10.5685 9.34146 10.4183 9.41911 10.3617C9.49863 10.3036 9.57821 10.2741 9.61974 10.26C9.66847 10.2435 9.71691 10.2315 9.75792 10.2224C9.85591 10.2009 9.99863 10.1791 10.1437 10.157C10.2098 10.1469 10.2764 10.1367 10.3395 10.1265C10.7965 10.0522 11.3507 9.9347 11.8258 9.67732C12.2847 9.42876 12.6476 9.06374 12.7891 8.47589C12.9364 7.8635 12.8659 6.91829 12.2347 5.47552C12.1617 5.30867 12.174 5.11681 12.2677 4.96065C12.8762 3.94639 12.8357 3.37754 12.7731 3.14602C12.5426 3.13076 12.2492 3.14645 11.9608 3.23064C11.5706 3.34455 11.2174 3.57299 11.0031 4.00162C10.9364 4.13505 10.8194 4.23652 10.6779 4.28369C10.5363 4.33087 10.3819 4.31989 10.2484 4.25317C9.61659 3.93723 9.2161 3.93743 9.01072 3.93754C9.00708 3.93754 9.00351 3.93754 9 3.93754C8.99648 3.93754 8.99291 3.93754 8.98928 3.93754C8.7839 3.93743 8.38341 3.93723 7.75156 4.25317C7.61813 4.31989 7.46365 4.33087 7.32212 4.28369C7.18059 4.23652 7.0636 4.13505 6.99688 4.00162C6.78257 3.57299 6.42941 3.34455 6.03924 3.23064C5.75081 3.14645 5.45744 3.13076 5.22686 3.14602Z" fill="white"/>
</svg>
