<svg width="18" height="18" viewBox="0 0 18 18" fill="none" xmlns="http://www.w3.org/2000/svg">
<path fill-rule="evenodd" clip-rule="evenodd" d="M8.99994 13.125C11.071 13.125 12.7499 11.4461 12.7499 9.37502C12.7499 7.30395 11.071 5.62502 8.99994 5.62502C6.92887 5.62502 5.24994 7.30395 5.24994 9.37502C5.24994 11.4461 6.92887 13.125 8.99994 13.125ZM8.99994 12C10.4497 12 11.6249 10.8248 11.6249 9.37502C11.6249 7.92527 10.4497 6.75002 8.99994 6.75002C7.55019 6.75002 6.37494 7.92527 6.37494 9.37502C6.37494 10.8248 7.55019 12 8.99994 12Z" fill="white"/>
<path d="M13.4999 4.87502C13.4999 5.49634 12.9963 6.00002 12.3749 6.00002C11.7536 6.00002 11.2499 5.49634 11.2499 4.87502C11.2499 4.2537 11.7536 3.75002 12.3749 3.75002C12.9963 3.75002 13.4999 4.2537 13.4999 4.87502Z" fill="white"/>
<path fill-rule="evenodd" clip-rule="evenodd" d="M2.10282 3.75002C1.49994 4.79424 1.49994 6.19617 1.49994 9.00002C1.49994 11.8039 1.49994 13.2058 2.10282 14.25C2.49778 14.9341 3.06585 15.5022 3.74994 15.8971C4.79417 16.5 6.19609 16.5 8.99994 16.5C11.8038 16.5 13.2057 16.5 14.2499 15.8971C14.934 15.5022 15.5021 14.9341 15.8971 14.25C16.4999 13.2058 16.4999 11.8039 16.4999 9.00002C16.4999 6.19617 16.4999 4.79424 15.8971 3.75002C15.5021 3.06593 14.934 2.49786 14.2499 2.1029C13.2057 1.50002 11.8038 1.50002 8.99994 1.50002C6.19609 1.50002 4.79417 1.50002 3.74994 2.1029C3.06585 2.49786 2.49778 3.06593 2.10282 3.75002ZM5.81663 15.3042C6.58556 15.3739 7.57731 15.375 8.99994 15.375C10.4226 15.375 11.4143 15.3739 12.1832 15.3042C12.9367 15.236 13.3651 15.109 13.6874 14.9229C14.2005 14.6266 14.6266 14.2006 14.9228 13.6875C15.1089 13.3652 15.2359 12.9368 15.3042 12.1833C15.3739 11.4144 15.3749 10.4226 15.3749 9.00002C15.3749 7.57739 15.3739 6.58563 15.3042 5.8167C15.2359 5.06324 15.1089 4.63487 14.9228 4.31252C14.6266 3.79945 14.2005 3.3734 13.6874 3.07718C13.3651 2.89107 12.9367 2.76407 12.1832 2.69578C11.4143 2.62609 10.4226 2.62502 8.99994 2.62502C7.57731 2.62502 6.58556 2.62609 5.81663 2.69578C5.06317 2.76407 4.63479 2.89107 4.31244 3.07718C3.79937 3.3734 3.37332 3.79945 3.0771 4.31252C2.89099 4.63487 2.764 5.06324 2.69571 5.8167C2.62602 6.58563 2.62494 7.57739 2.62494 9.00002C2.62494 10.4226 2.62602 11.4144 2.69571 12.1833C2.764 12.9368 2.89099 13.3652 3.0771 13.6875C3.37332 14.2006 3.79937 14.6266 4.31244 14.9229C4.63479 15.109 5.06317 15.236 5.81663 15.3042Z" fill="white"/>
</svg>
