<svg width="18" height="18" viewBox="0 0 18 18" fill="none" xmlns="http://www.w3.org/2000/svg">
<path d="M9.769 13.9501V9.25816C9.86339 9.11116 9.98781 8.99682 10.1423 8.91515C10.2967 8.83348 10.4855 8.79265 10.7086 8.79265C10.9188 8.79265 11.0969 8.81919 11.2428 8.87228C11.3886 8.92536 11.5002 9.02336 11.5774 9.16629C11.6546 9.30512 11.6933 9.50726 11.6933 9.77268V13.9501H13.8749V9.77881C13.8749 9.29696 13.8213 8.89269 13.714 8.56601C13.6111 8.23525 13.4609 7.96983 13.2636 7.76973C13.0705 7.56964 12.8388 7.42468 12.5685 7.33484C12.3025 7.24501 12.0086 7.20009 11.6868 7.20009C11.2835 7.20009 10.9167 7.27359 10.5863 7.4206C10.2603 7.56352 9.97923 7.77382 9.74326 8.0515C9.73122 8.06566 9.71933 8.07997 9.70757 8.09445L9.63385 7.32259H7.60019V13.9501H9.769Z" fill="white"/>
<path d="M6.30019 7.32259V13.9501H4.12494V7.32259H6.30019Z" fill="white"/>
<path d="M5.24996 6.44994C5.9127 6.44994 6.44996 5.91268 6.44996 5.24994C6.44996 4.5872 5.9127 4.04994 5.24996 4.04994C4.58722 4.04994 4.04996 4.5872 4.04996 5.24994C4.04996 5.91268 4.58722 6.44994 5.24996 6.44994Z" fill="white"/>
<path fill-rule="evenodd" clip-rule="evenodd" d="M2.10282 3.75002C1.49994 4.79424 1.49994 6.19617 1.49994 9.00002C1.49994 11.8039 1.49994 13.2058 2.10282 14.25C2.49778 14.9341 3.06585 15.5022 3.74994 15.8971C4.79417 16.5 6.19609 16.5 8.99994 16.5C11.8038 16.5 13.2057 16.5 14.2499 15.8971C14.934 15.5022 15.5021 14.9341 15.8971 14.25C16.4999 13.2058 16.4999 11.8039 16.4999 9.00002C16.4999 6.19617 16.4999 4.79424 15.8971 3.75002C15.5021 3.06593 14.934 2.49786 14.2499 2.1029C13.2057 1.50002 11.8038 1.50002 8.99994 1.50002C6.19609 1.50002 4.79417 1.50002 3.74994 2.1029C3.06585 2.49786 2.49778 3.06593 2.10282 3.75002ZM5.81663 15.3042C6.58556 15.3739 7.57731 15.375 8.99994 15.375C10.4226 15.375 11.4143 15.3739 12.1833 15.3042C12.9367 15.236 13.3651 15.109 13.6874 14.9229C14.2005 14.6266 14.6266 14.2006 14.9228 13.6875C15.1089 13.3652 15.2359 12.9368 15.3042 12.1833C15.3739 11.4144 15.3749 10.4226 15.3749 9.00002C15.3749 7.57739 15.3739 6.58563 15.3042 5.8167C15.2359 5.06324 15.1089 4.63487 14.9228 4.31252C14.6266 3.79945 14.2005 3.3734 13.6874 3.07718C13.3651 2.89107 12.9367 2.76407 12.1833 2.69578C11.4143 2.62609 10.4226 2.62502 8.99994 2.62502C7.57731 2.62502 6.58556 2.62609 5.81663 2.69578C5.06317 2.76407 4.63479 2.89107 4.31244 3.07718C3.79937 3.3734 3.37332 3.79945 3.0771 4.31252C2.89099 4.63487 2.764 5.06324 2.69571 5.8167C2.62602 6.58563 2.62494 7.57739 2.62494 9.00002C2.62494 10.4226 2.62602 11.4144 2.69571 12.1833C2.764 12.9368 2.89099 13.3652 3.0771 13.6875C3.37332 14.2006 3.79937 14.6266 4.31244 14.9229C4.63479 15.109 5.06317 15.236 5.81663 15.3042Z" fill="white"/>
</svg>
